<?xml version="1.0" encoding="utf-8"?>
<!-- Generator: Adobe Illustrator 15.1.0, SVG Export Plug-In . SVG Version: 6.00 Build 0)  -->
<!DOCTYPE svg PUBLIC "-//W3C//DTD SVG 1.1//EN" "http://www.w3.org/Graphics/SVG/1.1/DTD/svg11.dtd">
<svg version="1.1" id="Ebene_1" xmlns="http://www.w3.org/2000/svg" xmlns:xlink="http://www.w3.org/1999/xlink" x="0px" y="0px"
	 width="156px" height="77px" viewBox="0 0 156 77" enable-background="new 0 0 156 77" xml:space="preserve">
<rect x="-113.333" y="170" display="none" fill="#FFFFFF" width="190.333" height="15"/>
<rect x="-51" y="30.375" display="none" fill="#FFFFFF" width="95.167" height="14.167"/>
<rect x="100.802" y="511.712" transform="matrix(0.8474 -0.531 0.531 0.8474 -255.4502 142.2721)" display="none" fill="#FFFFFF" width="37.97" height="7.667"/>
<rect x="67.333" y="513.667" transform="matrix(0.8474 -0.531 0.531 0.8474 -261.0355 126.7566)" display="none" fill="#FFFFFF" width="45.334" height="7.667"/>
<rect x="28.333" y="513.667" transform="matrix(0.8474 -0.531 0.531 0.8474 -266.9869 106.0493)" display="none" fill="#FFFFFF" width="45.334" height="7.667"/>
<rect x="-7.667" y="513.667" transform="matrix(0.8474 -0.531 0.531 0.8474 -272.4805 86.9349)" display="none" fill="#FFFFFF" width="45.334" height="7.667"/>
<path fill="#1D1D1B" d="M-444.126,48.107v-12.77c0,0,0.227-6.102-4.068-6.102c-4.294,0-4.068,6.102-4.068,6.102v49.949
	c0,0-0.226,6.103,4.068,6.103c4.295,0,4.068-6.103,4.068-6.103V70.257l-4.859-10.284h17.064v41.36h-7.232l-1.469-3.955
	c-2.261,2.825-5.65,4.859-9.493,4.859c-15.481,0-14.353-17.969-14.353-17.969V35.337c0,0-0.112-17.968,16.273-17.968
	c16.387,0,16.273,17.968,16.273,17.968v12.77H-444.126z"/>
<path fill="#1D1D1B" d="M-324.899,30.818V18.273h35.258v12.545h-11.527v70.516h-12.204V30.818H-324.899z"/>
<polygon fill="#1D1D1B" points="-362.202,30.818 -362.202,18.273 -390.115,18.273 -390.115,101.333 -362.202,101.333 
	-362.202,88.79 -377.911,88.79 -377.911,60 -370,60 -370,48.125 -377.911,48.125 -377.911,30.818 "/>
<path fill="#1D1D1B" d="M-346.706,36.806c0-4.746,1.017-8.136,4.181-8.249c3.676,0,4.673,5.259,4.832,10.359h12.002
	c-0.084-9.232-2.625-21.88-17.06-21.547c-11.527,0.226-15.935,10.396-15.935,19.437c0,8.928,5.425,17.404,11.188,25.879
	c4.633,7.007,9.831,13.674,9.831,19.211c0,5.199-1.356,9.154-4.972,9.154c-4.637,0-5.607-6.014-5.742-12.3h-11.996
	c0.079,12.065,2.326,23.488,17.738,23.488c13.334,0,16.95-9.832,16.95-20.906c0-8.928-5.763-17.178-11.413-25.652
	C-341.847,48.786-346.706,42.457-346.706,36.806z"/>
<path fill="#1D1D1B" d="M-400.735,64.103c4.402-3.103,6.78-13.623,6.78-21.872c0-15.595-6.328-23.958-20.793-23.958h-12.205v29.826
	h12.205V30.365c3.39,0,9.04,2.453,9.04,14.318s-5.65,15.318-9.04,15.318v-0.022h-12.205v41.354h12.205V70.301h3.276l6.329,31.032
	h12.204L-400.735,64.103z"/>
<path fill="#FFFFFF" d="M2,2.496h10.801V76H2V2.496z"/>
<path fill="#FFFFFF" d="M28.6,2.496v24.501v1.2H29l0.5-1.2l9-24.501h10.5l-9.9,24.201L50.301,76H39.8l-7.5-32.002l-0.3-1.5h-0.3
	l-0.6,1.5l-2.5,6V76H17.799c0-23.001,0-73.504,0-73.504H28.6z"/>
<path fill="#FFFFFF" d="M81.001,2.496v58.403c0,0,0.1,15.901-14.401,15.901c-14.5,0-14.4-15.901-14.4-15.901V2.496H63v58.403
	c0,0-0.2,5.4,3.6,5.4c3.801,0,3.601-5.4,3.601-5.4V2.496H81.001z"/>
<path fill="#1D1D1B" d="M-448.385,150.186v-7.993h22.466v7.993h-7.345v44.932h-7.776v-44.932H-448.385z"/>
<path fill="#1D1D1B" d="M-402.953,195.117v-52.925c0,0,3.889,0,6.841,0c9.288,0,14.185,3.528,14.185,14.042
	c0,4.896-1.08,7.705-4.824,10.945c0,0,5.4,2.448,5.4,12.961c0,7.777-2.736,14.617-12.024,14.978H-402.953z M-395.177,149.897v14.113
	c1.44,0,5.761,0.216,5.761-7.057C-389.416,149.681-393.736,149.897-395.177,149.897z M-395.177,171.139v16.273
	c1.44,0,5.761,0.576,5.761-8.137C-389.416,170.563-393.736,171.139-395.177,171.139z"/>
<path fill="#1D1D1B" d="M-380.562,153.642v-4.968c6.48-1.296,8.28-6.481,8.28-6.481h4.681v52.925h-7.776v-41.476H-380.562z"/>
<path fill="#1D1D1B" d="M-353.977,195.693c-10.441,0-10.369-11.449-10.369-11.449v-31.179c0,0-0.072-11.449,10.369-11.449
	c10.44,0,10.369,11.449,10.369,11.449v31.179C-343.607,184.244-343.536,195.693-353.977,195.693z M-353.977,149.177
	c-2.736,0-2.592,3.888-2.592,3.888v31.179c0,0-0.145,3.889,2.592,3.889s2.592-3.889,2.592-3.889v-31.179
	C-351.385,153.065-351.24,149.177-353.977,149.177z"/>
<polygon fill="#FFFFFF" points="143.353,2.477 130.104,2.477 118.963,76.25 121.158,76.25 129.5,76.25 135.328,76.25 
	135.328,65.108 130.983,65.108 136.126,26.466 136.428,24.559 137.029,24.559 137.329,26.466 142.472,65.108 137.885,65.108 
	137.885,76.25 143.955,76.25 152.475,76.25 154.493,76.25 "/>
<path fill="#FFFFFF" d="M109.391,43.042c3.904-2.753,6.016-12.088,6.016-19.408c0-13.838-5.615-21.259-18.45-21.258H86.125v38.377
	h10.831V13.105c3.007,0,8.021,2.177,8.021,12.705s-5.015,13.593-8.021,13.593v-0.02H86.125v36.695h10.831V48.542h2.906l5.616,27.536
	h10.829L109.391,43.042z"/>
</svg>
